<svg xmlns="http://www.w3.org/2000/svg" xmlns:xlink="http://www.w3.org/1999/xlink" version="1.0" width="316" height="316" viewBox="0 0 48 48" id="svg11300"><defs id="defs3"><linearGradient id="linearGradient8542"><stop style="stop-color:#5b676b;stop-opacity:1" offset="0" id="stop8544"/><stop style="stop-color:#141718;stop-opacity:1" offset="1" id="stop8546"/></linearGradient><linearGradient id="linearGradient8534"><stop style="stop-color:black;stop-opacity:1" offset="0" id="stop8536"/><stop style="stop-color:black;stop-opacity:0" offset="1" id="stop8538"/></linearGradient><linearGradient id="linearGradient8524"><stop style="stop-color:white;stop-opacity:1" offset="0" id="stop8526"/><stop style="stop-color:white;stop-opacity:0" offset="1" id="stop8528"/></linearGradient><linearGradient id="linearGradient2446"><stop style="stop-color:white;stop-opacity:1" offset="0" id="stop2448"/><stop style="stop-color:white;stop-opacity:0" offset="1" id="stop2450"/></linearGradient><linearGradient x1="13.236" y1="37.752" x2="7.752" y2="42.282" id="linearGradient2452" xlink:href="#linearGradient2446" gradientUnits="userSpaceOnUse" gradientTransform="rotate(27.621 -26.244 -49.44) scale(.8523)"/><linearGradient id="linearGradient6963"><stop style="stop-color:#696969;stop-opacity:1" offset="0" id="stop6965"/><stop style="stop-color:black;stop-opacity:1" offset="1" id="stop6967"/></linearGradient><linearGradient id="linearGradient6939"><stop style="stop-color:#bdbdbd;stop-opacity:1" offset="0" id="stop6941"/><stop style="stop-color:#e2e2e2;stop-opacity:1" offset=".333" id="stop6947"/><stop style="stop-color:#a3a3a3;stop-opacity:1" offset=".667" id="stop6949"/><stop style="stop-color:#ddd;stop-opacity:1" offset="1" id="stop6943"/></linearGradient><linearGradient x1="19.395" y1="30.001" x2="23.109" y2="33.439" id="linearGradient6945" xlink:href="#linearGradient6939" gradientUnits="userSpaceOnUse" gradientTransform="translate(-46.407 -1.803)"/><linearGradient id="linearGradient6951"><stop style="stop-color:#6e3d09;stop-opacity:1" offset="0" id="stop6953"/><stop style="stop-color:#ea8113;stop-opacity:1" offset=".242" id="stop6959"/><stop style="stop-color:#5c3307;stop-opacity:1" offset=".621" id="stop6961"/><stop style="stop-color:#e07c12;stop-opacity:1" offset="1" id="stop6955"/></linearGradient><linearGradient x1="37.018" y1="19.24" x2="27.754" y2="11.182" id="linearGradient6957" xlink:href="#linearGradient6951" gradientUnits="userSpaceOnUse" gradientTransform="translate(-49.305 1.878)"/><linearGradient id="linearGradient6500"><stop style="stop-color:#857c63;stop-opacity:1" offset="0" id="stop6502"/><stop style="stop-color:#221f19;stop-opacity:1" offset="1" id="stop6504"/></linearGradient><linearGradient id="linearGradient6492"><stop style="stop-color:black;stop-opacity:1" offset="0" id="stop6494"/><stop style="stop-color:black;stop-opacity:0" offset="1" id="stop6496"/></linearGradient><linearGradient id="linearGradient6482"><stop style="stop-color:black;stop-opacity:1" offset="0" id="stop6484"/><stop style="stop-color:black;stop-opacity:0" offset="1" id="stop6486"/></linearGradient><linearGradient id="linearGradient6468"><stop style="stop-color:white;stop-opacity:1" offset="0" id="stop6470"/><stop style="stop-color:#b9b9b0;stop-opacity:1" offset="1" id="stop6472"/></linearGradient><linearGradient id="linearGradient6452"><stop style="stop-color:white;stop-opacity:1" offset="0" id="stop6454"/><stop style="stop-color:white;stop-opacity:0" offset="1" id="stop6456"/></linearGradient><linearGradient x1="6.305" y1="23.362" x2="5.985" y2="31.57" id="linearGradient6458" xlink:href="#linearGradient6452" gradientUnits="userSpaceOnUse"/><linearGradient x1="14.969" y1="19.111" x2="39.525" y2="46.986" id="linearGradient8530" xlink:href="#linearGradient8524" gradientUnits="userSpaceOnUse"/><linearGradient x1="26.163" y1="30.543" x2="24.329" y2="30.985" id="linearGradient4330" xlink:href="#linearGradient8534" gradientUnits="userSpaceOnUse"/><linearGradient x1="32.35" y1="28.083" x2="21.213" y2="30.293" id="linearGradient4351" xlink:href="#linearGradient6482" gradientUnits="userSpaceOnUse" gradientTransform="translate(-3.837 .346)"/><radialGradient cx="15.415" cy="35.357" r="7.579" fx="15.415" fy="35.357" id="radialGradient6969" xlink:href="#linearGradient6963" gradientUnits="userSpaceOnUse" gradientTransform="matrix(1.5727 0 0 1.53264 -55.367 -21.358)"/><radialGradient cx="69.473" cy="19.598" r="3.515" fx="69.473" fy="19.598" id="radialGradient6474" xlink:href="#linearGradient6468" gradientUnits="userSpaceOnUse" gradientTransform="matrix(1.31849 0 0 1.31849 -22.126 -6.242)"/><radialGradient cx="23" cy="33.938" r="18.25" fx="23" fy="33.938" id="radialGradient6498" xlink:href="#linearGradient6492" gradientUnits="userSpaceOnUse" gradientTransform="matrix(1 0 0 .28425 0 24.29)"/><radialGradient cx="6.024" cy="25.271" r="4.831" fx="6.024" fy="25.271" id="radialGradient8548" xlink:href="#linearGradient8542" gradientUnits="userSpaceOnUse" gradientTransform="matrix(.91616 .09319 -.10877 1.0693 3.254 -3.03)"/><radialGradient cx="18.558" cy="22.3" r="19.229" fx="18.558" fy="22.3" id="radialGradient4354" xlink:href="#linearGradient6500" gradientUnits="userSpaceOnUse" gradientTransform="matrix(1.77275 0 0 1.29668 -16.34 -6.616)"/><radialGradient cx="69.473" cy="19.598" r="3.515" fx="69.473" fy="19.598" id="radialGradient4363" xlink:href="#linearGradient6468" gradientUnits="userSpaceOnUse" gradientTransform="matrix(1.31849 0 0 1.31849 -22.126 -6.242)"/></defs><g id="layer1"><path d="M41.25 33.938a18.25 5.188 0 1 1-36.5 0 18.25 5.188 0 1 1 36.5 0z" transform="matrix(1 0 0 1.53012 .125 -19.991)" style="color:#000;fill:url(#radialGradient6498);fill-opacity:1;fill-rule:evenodd;stroke:none;stroke-width:1px;stroke-linecap:butt;stroke-linejoin:miter;marker:none;marker-start:none;marker-mid:none;marker-end:none;stroke-miterlimit:10;stroke-dasharray:none;stroke-dashoffset:0;stroke-opacity:1;visibility:visible;display:inline;overflow:visible" id="path6490"/><path d="M10.374 12.468s2.875 5.928 9.6 5.76c14.092-.353 16.563-7.705 16.917-8.765.353-1.061.894-.9 1.02.08 4.596 41.72-31.897 23.82-33.193 16.713 7.247-2.12 5.48-6.187 5.48-6.187l.176-7.601z" style="color:#000;fill:url(#radialGradient4354);fill-opacity:1;fill-rule:evenodd;stroke:#2e3436;stroke-width:1px;stroke-linecap:butt;stroke-linejoin:miter;marker:none;marker-start:none;marker-mid:none;marker-end:none;stroke-miterlimit:10;stroke-dasharray:none;stroke-dashoffset:0;stroke-opacity:1;visibility:visible;display:inline;overflow:visible" id="path4323"/><path d="M15.738 30.066c6.739 1.348 10.17.098 12.179-1.453-.53-.685-1.436-1.436-1.436-1.436s2.353.654 3.182 1.724c.826 1.066.306 1.723.09 3.088-.481-1.199-1.38-1.648-1.501-2.124-1.807 2.497-6.307 2.393-12.514.201z" style="color:#000;fill:url(#linearGradient4351);fill-opacity:1;fill-rule:evenodd;stroke:none;stroke-width:1px;stroke-linecap:butt;stroke-linejoin:miter;marker:none;marker-start:none;marker-mid:none;marker-end:none;stroke-miterlimit:10;stroke-dasharray:none;stroke-dashoffset:0;stroke-opacity:1;visibility:visible;display:inline;overflow:visible" id="path6480"/><path d="M36.969 11.844a12.252 12.252 0 0 1-2.688 3.094C31.65 17.116 27.231 19.1 20 19.28c-4.224.105-6.953-1.934-8.625-3.75L11.25 20c.136.419.415 1.39-.063 2.719-.514 1.429-2.154 2.891-4.968 4 .25.522.495 1.043 1.25 1.781 1.028 1.005 2.457 2.088 4.156 3.063 3.398 1.948 7.802 3.493 11.906 3.562 4.105.07 7.857-1.235 10.438-5 2.378-3.471 3.682-9.348 3-18.281z" style="opacity:.185393;color:#000;fill:none;fill-opacity:1;fill-rule:evenodd;stroke:url(#linearGradient8530);stroke-width:1px;stroke-linecap:butt;stroke-linejoin:miter;marker:none;marker-start:none;marker-mid:none;marker-end:none;stroke-miterlimit:10;stroke-dasharray:none;stroke-dashoffset:0;stroke-opacity:1;visibility:visible;display:inline;overflow:visible" id="path8520"/><path d="M72.655 21.837a3.182 3.182 0 1 1-6.364 0 3.182 3.182 0 1 1 6.364 0z" transform="matrix(1.27778 0 0 1.27778 -75.127 -6.508)" style="color:#000;fill:url(#radialGradient4363);fill-opacity:1;fill-rule:evenodd;stroke:#888a85;stroke-width:.782608px;stroke-linecap:butt;stroke-linejoin:miter;marker:none;marker-start:none;marker-mid:none;marker-end:none;stroke-miterlimit:10;stroke-dasharray:none;stroke-dashoffset:0;stroke-opacity:1;visibility:visible;display:inline;overflow:visible" id="path4357"/><path d="M10.43 27.229a4.331 6.099 0 1 1-8.662 0 4.331 6.099 0 1 1 8.662 0z" transform="rotate(-35.808 3.363 26.345)" style="color:#000;fill:url(#radialGradient8548);fill-opacity:1;fill-rule:evenodd;stroke:#000;stroke-width:1px;stroke-linecap:butt;stroke-linejoin:miter;marker:none;marker-start:none;marker-mid:none;marker-end:none;stroke-miterlimit:10;stroke-dasharray:none;stroke-dashoffset:0;stroke-opacity:1;visibility:visible;display:inline;overflow:visible" id="path5198"/><path d="M24.042 21.837a2.298 2.298 0 1 1-4.597 0 2.298 2.298 0 1 1 4.597 0z" transform="translate(-3.927 3.396) scale(.85185)" style="color:#000;fill:#2e3436;fill-opacity:1;fill-rule:evenodd;stroke:#000;stroke-width:1.17391px;stroke-linecap:butt;stroke-linejoin:miter;marker:none;marker-start:none;marker-mid:none;marker-end:none;stroke-miterlimit:10;stroke-dasharray:none;stroke-dashoffset:0;stroke-opacity:1;visibility:visible;display:inline;overflow:visible" id="path4359"/><path d="M6.094 22.156c-.798 0-1.553.446-2.188 1.344-.634.898-1.094 2.234-1.094 3.719 0 1.484.46 2.82 1.094 3.718.635.898 1.39 1.344 2.188 1.344.798 0 1.577-.476 2.218-1.375.642-.898 1.094-2.206 1.094-3.687 0-1.482-.452-2.79-1.094-3.688-.641-.898-1.42-1.375-2.218-1.375z" transform="rotate(-36.833 3.366 26.6)" style="opacity:.280899;color:#000;fill:none;fill-opacity:1;fill-rule:evenodd;stroke:url(#linearGradient6458);stroke-width:1px;stroke-linecap:butt;stroke-linejoin:miter;marker:none;marker-start:none;marker-mid:none;marker-end:none;stroke-miterlimit:10;stroke-dasharray:none;stroke-dashoffset:0;stroke-opacity:1;visibility:visible;display:inline;overflow:visible" id="path6450"/><path d="M5.834 23.251a1.768 2.121 0 1 1-3.536 0 1.768 2.121 0 1 1 3.536 0z" style="color:#000;fill:#fff;fill-opacity:1;fill-rule:evenodd;stroke:none;stroke-width:1px;stroke-linecap:butt;stroke-linejoin:miter;marker:none;marker-start:none;marker-mid:none;marker-end:none;stroke-miterlimit:10;stroke-dasharray:none;stroke-dashoffset:0;stroke-opacity:1;visibility:visible;display:inline;overflow:visible" id="path6446"/><path d="M23.158 20.953a1.768 1.768 0 1 1-3.536 0 1.768 1.768 0 1 1 3.536 0z" transform="matrix(.76667 0 0 .76667 -2.556 5.03)" style="color:#000;fill:#fff;fill-opacity:1;fill-rule:evenodd;stroke:none;stroke-width:1px;stroke-linecap:butt;stroke-linejoin:miter;marker:none;marker-start:none;marker-mid:none;marker-end:none;stroke-miterlimit:10;stroke-dasharray:none;stroke-dashoffset:0;stroke-opacity:1;visibility:visible;display:inline;overflow:visible" id="path4361"/><path d="M72.655 21.837a3.182 3.182 0 1 1-6.364 0 3.182 3.182 0 1 1 6.364 0z" transform="matrix(1.5 0 0 1.5 -82.168 -10.919)" style="color:#000;fill:url(#radialGradient6474);fill-opacity:1;fill-rule:evenodd;stroke:#888a85;stroke-width:.666666px;stroke-linecap:butt;stroke-linejoin:miter;marker:none;marker-start:none;marker-mid:none;marker-end:none;stroke-miterlimit:10;stroke-dasharray:none;stroke-dashoffset:0;stroke-opacity:1;visibility:visible;display:inline;overflow:visible" id="path6462"/><path d="M24.042 21.837a2.298 2.298 0 1 1-4.597 0 2.298 2.298 0 1 1 4.597 0z" transform="translate(1.414 .707)" style="color:#000;fill:#2e3436;fill-opacity:1;fill-rule:evenodd;stroke:#000;stroke-width:1px;stroke-linecap:butt;stroke-linejoin:miter;marker:none;marker-start:none;marker-mid:none;marker-end:none;stroke-miterlimit:10;stroke-dasharray:none;stroke-dashoffset:0;stroke-opacity:1;visibility:visible;display:inline;overflow:visible" id="path6464"/><path d="M23.158 20.953a1.768 1.768 0 1 1-3.536 0 1.768 1.768 0 1 1 3.536 0z" transform="matrix(.9 0 0 .9 3.023 2.626)" style="color:#000;fill:#fff;fill-opacity:1;fill-rule:evenodd;stroke:none;stroke-width:1px;stroke-linecap:butt;stroke-linejoin:miter;marker:none;marker-start:none;marker-mid:none;marker-end:none;stroke-miterlimit:10;stroke-dasharray:none;stroke-dashoffset:0;stroke-opacity:1;visibility:visible;display:inline;overflow:visible" id="path6466"/><g transform="rotate(-106.415 23.46 5.603) scale(.40643)" id="g8463"><path d="m-23.364 23.568 3.71 3.47c8.347-6.381 17.094-20.1 17.094-20.1 1.976-2.242-.117-3.75-2.165-2.398 0 0-12.97 10.115-18.64 19.028z" style="opacity:1;color:#000;fill:url(#linearGradient6957);fill-opacity:1;fill-rule:nonzero;stroke:#673907;stroke-width:2.46045px;stroke-linecap:round;stroke-linejoin:miter;marker:none;marker-start:none;marker-mid:none;marker-end:none;stroke-miterlimit:4;stroke-dasharray:none;stroke-dashoffset:0;stroke-opacity:1;visibility:visible;display:inline;overflow:visible" id="path6937"/><path d="m-30.45 32.814 2.247 1.934 8.492-7.367.275-.706 1.095-.018c-.438-1.562-2.942-4.383-4.817-4.383l.082 1.09-.67.38-6.704 9.07z" style="opacity:1;color:#000;fill:url(#linearGradient6945);fill-opacity:1;fill-rule:nonzero;stroke:#888a85;stroke-width:2.46045px;stroke-linecap:round;stroke-linejoin:miter;marker:none;marker-start:none;marker-mid:none;marker-end:none;stroke-miterlimit:4;stroke-dasharray:none;stroke-dashoffset:0;stroke-opacity:1;visibility:visible;display:inline;overflow:visible" id="path6935"/><path d="m-23.801 28.377-4.365 5.266" style="opacity:1;color:#000;fill:none;fill-opacity:1;fill-rule:nonzero;stroke:#fff;stroke-width:2.46045px;stroke-linecap:round;stroke-linejoin:round;marker:none;marker-start:none;marker-mid:none;marker-end:none;stroke-miterlimit:4;stroke-dasharray:none;stroke-dashoffset:0;stroke-opacity:1;visibility:visible;display:inline;overflow:visible" id="path6985"/><path d="M-45.341 42.77c10.444 0 18.37 1.244 19.87-6.355 1.21-6.123-7.21-9.057-11.382-3.59-4.02 5.265-8.488 9.945-8.488 9.945z" style="opacity:1;color:#000;fill:url(#radialGradient6969);fill-opacity:1;fill-rule:nonzero;stroke:none;stroke-width:.2px;stroke-linecap:round;stroke-linejoin:miter;marker:none;marker-start:none;marker-mid:none;marker-end:none;stroke-miterlimit:4;stroke-dasharray:none;stroke-dashoffset:0;stroke-opacity:1;visibility:visible;display:inline;overflow:visible" id="path6933"/><path d="M8.875 37.75a1.25 1.25 0 1 1-2.5 0 1.25 1.25 0 1 1 2.5 0z" transform="matrix(2.0699 0 0 2.0699 -44.75 -41.51)" style="opacity:.527778;color:#000;fill:#fff;fill-opacity:1;fill-rule:nonzero;stroke:none;stroke-width:1px;stroke-linecap:round;stroke-linejoin:miter;marker:none;marker-start:none;marker-mid:none;marker-end:none;stroke-miterlimit:4;stroke-dasharray:none;stroke-dashoffset:0;stroke-opacity:1;visibility:visible;display:inline;overflow:visible" id="path6971"/><path d="M8.875 37.75a1.25 1.25 0 1 1-2.5 0 1.25 1.25 0 1 1 2.5 0z" transform="matrix(1.39667 0 0 1.39667 -32.055 -25.877)" style="opacity:1;color:#000;fill:#fff;fill-opacity:1;fill-rule:nonzero;stroke:none;stroke-width:1px;stroke-linecap:round;stroke-linejoin:miter;marker:none;marker-start:none;marker-mid:none;marker-end:none;stroke-miterlimit:4;stroke-dasharray:none;stroke-dashoffset:0;stroke-opacity:1;visibility:visible;display:inline;overflow:visible" id="path6983"/><path d="M-38.544 40.91s3.722.094 6.117-1.413c.847-.533 1.516.65.494 1.088-2.208.944-6.61.324-6.61.324z" style="opacity:.427778;color:#000;fill:url(#linearGradient2452);fill-opacity:1;fill-rule:nonzero;stroke:none;stroke-width:1px;stroke-linecap:round;stroke-linejoin:miter;marker:none;marker-start:none;marker-mid:none;marker-end:none;stroke-miterlimit:4;stroke-dasharray:none;stroke-dashoffset:0;stroke-opacity:1;visibility:visible;display:inline;overflow:visible" id="path1571"/></g><path d="M23.003 31.737c1.497.143 2.85-.273 3.412-.475.098-.555.537-1.62 2.046-1.691l-.53-.928s-1.967 1.348-4.066 1.746l-.862 1.348z" style="color:#000;fill:url(#linearGradient4330);fill-opacity:1;fill-rule:evenodd;stroke:none;stroke-width:1px;stroke-linecap:butt;stroke-linejoin:miter;marker:none;marker-start:none;marker-mid:none;marker-end:none;stroke-miterlimit:10;stroke-dasharray:none;stroke-dashoffset:0;stroke-opacity:1;visibility:visible;display:inline;overflow:visible" id="path8532"/></g></svg>