<svg version="1.0" id="katman_1" x="0" y="0" xml:space="preserve" width="512" height="512" xmlns:xlink="http://www.w3.org/1999/xlink" xmlns="http://www.w3.org/2000/svg"><style id="style2">.st1{fill:url(#SVGID_00000130622934180993703410000017420799098261276343_)}.st2{fill:url(#SVGID_00000060739771362873723200000017991140373209755022_)}.st3{fill:#fff}</style><symbol id="rider" viewBox="-35 -35 70 70"><linearGradient id="SVGID_1_" gradientUnits="userSpaceOnUse" x1="30.49" y1="5.119" x2="-23.468" y2="-25.845"><stop offset="0" style="stop-color:#dd1265" id="stop4"/><stop offset=".483" style="stop-color:#dd1265" id="stop6"/><stop offset=".942" style="stop-color:#fdb60d" id="stop8"/></linearGradient><path d="M35-7.7-14.1-35l32.9 48.9 6.7-4.4Z" id="path11" style="fill:url(#SVGID_1_)"/><linearGradient id="SVGID_00000169517474296634577950000016895268102491994795_" gradientUnits="userSpaceOnUse" x1="-1.584" y1="-28.888" x2="19.805" y2="30.175"><stop offset=".139" style="stop-color:#087cfa" id="stop13"/><stop offset=".476" style="stop-color:#dd1265" id="stop15"/><stop offset=".958" style="stop-color:#087cfa" id="stop17"/></linearGradient><path style="fill:url(#SVGID_00000169517474296634577950000016895268102491994795_)" d="m15.5-18.9-6.2-15-13.6 13.4 5.5 48.6L14.4 35 35 23Z" id="path20"/><linearGradient id="SVGID_00000135668350575375336630000014638141720088491653_" gradientUnits="userSpaceOnUse" x1="-17.587" y1="-27.071" x2="-1.788" y2="29.074"><stop offset=".278" style="stop-color:#dd1265" id="stop22"/><stop offset=".968" style="stop-color:#fdb60d" id="stop24"/></linearGradient><path style="fill:url(#SVGID_00000135668350575375336630000014638141720088491653_)" d="M-14.1-35-35-20.9l7.8 48.1 20.1 7.7 26-21z" id="path27"/><path d="M21-21h-42v42h42Z" id="path29"/><path class="st3" d="M-.6 13.6h-15.8v2.7H-.6z" id="path31"/><path class="st3" d="M.5-15.8h6.2c5 0 8.4 3.4 8.4 7.7 0 4.4-3.4 7.9-8.4 7.9L.5 0ZM4-12.6v9.5h2.7c2.8 0 4.8-1.9 4.8-4.6 0-2.8-1.9-4.7-4.8-4.7z" id="path33"/><path class="st3" d="M-15.7-15.8h7.2c2 0 3.5.6 4.6 1.6.9.9 1.3 2.1 1.3 3.6v.1c0 1.3-.3 2.3-.9 3.1-.6.8-1.4 1.4-2.4 1.8L-2 0h-4.1l-3.3-4.8h-2.9V0h-3.5zm7 7.7c.8 0 1.5-.2 2-.6.5-.4.7-1 .7-1.6v-.1c0-.8-.2-1.3-.7-1.7-.5-.3-1.1-.6-2-.6h-3.4v4.5h3.4z" id="path35"/></symbol><use xlink:href="#rider" width="70" height="70" x="-35" y="-35" transform="matrix(7.06825 0 0 7.2481 256 256)" style="overflow:visible" id="use38"/></svg>