<svg xmlns="http://www.w3.org/2000/svg" xmlns:xlink="http://www.w3.org/1999/xlink" xml:space="preserve" id="katman_1" width="512" height="512" x="0" y="0" version="1.0"><style id="style2">.st3{fill:#fff}</style><symbol id="rider" viewBox="-35 -35 70 70"><linearGradient id="SVGID_1_" x1="30.49" x2="-23.468" y1="5.119" y2="-25.845" gradientUnits="userSpaceOnUse"><stop id="stop4" offset="0" style="stop-color:#dd1265"/><stop id="stop6" offset=".483" style="stop-color:#dd1265"/><stop id="stop8" offset=".942" style="stop-color:#fdb60d"/></linearGradient><path id="path11" d="M35-7.7-14.1-35l32.9 48.9 6.7-4.4Z" style="fill:url(#SVGID_1_)"/><linearGradient id="SVGID_00000169517474296634577950000016895268102491994795_" x1="-1.584" x2="19.805" y1="-28.888" y2="30.175" gradientUnits="userSpaceOnUse"><stop id="stop13" offset=".139" style="stop-color:#087cfa"/><stop id="stop15" offset=".476" style="stop-color:#dd1265"/><stop id="stop17" offset=".958" style="stop-color:#087cfa"/></linearGradient><path id="path20" d="m15.5-18.9-6.2-15-13.6 13.4 5.5 48.6L14.4 35 35 23Z" style="fill:url(#SVGID_00000169517474296634577950000016895268102491994795_)"/><linearGradient id="SVGID_00000135668350575375336630000014638141720088491653_" x1="-17.587" x2="-1.788" y1="-27.071" y2="29.074" gradientUnits="userSpaceOnUse"><stop id="stop22" offset=".278" style="stop-color:#dd1265"/><stop id="stop24" offset=".968" style="stop-color:#fdb60d"/></linearGradient><path id="path27" d="M-14.1-35-35-20.9l7.8 48.1 20.1 7.7 26-21z" style="fill:url(#SVGID_00000135668350575375336630000014638141720088491653_)"/><path id="path29" d="M21-21h-42v42h42Z"/><path id="path31" d="M-.6 13.6h-15.8v2.7H-.6z" class="st3"/><path id="path33" d="M.5-15.8h6.2c5 0 8.4 3.4 8.4 7.7 0 4.4-3.4 7.9-8.4 7.9L.5 0ZM4-12.6v9.5h2.7c2.8 0 4.8-1.9 4.8-4.6 0-2.8-1.9-4.7-4.8-4.7z" class="st3"/><path id="path35" d="M-15.7-15.8h7.2c2 0 3.5.6 4.6 1.6.9.9 1.3 2.1 1.3 3.6v.1c0 1.3-.3 2.3-.9 3.1q-.9 1.2-2.4 1.8L-2 0h-4.1l-3.3-4.8h-2.9V0h-3.5zm7 7.7c.8 0 1.5-.2 2-.6s.7-1 .7-1.6v-.1c0-.8-.2-1.3-.7-1.7-.5-.3-1.1-.6-2-.6h-3.4v4.5h3.4z" class="st3"/></symbol><use xlink:href="#rider" id="use38" width="70" height="70" x="-35" y="-35" style="overflow:visible" transform="matrix(7.06825 0 0 7.2481 256 256)"/></svg>